<svg xmlns="http://www.w3.org/2000/svg" width="333" height="116" viewBox="0 0 333 116"><path d="M123.34 31.342h-10.542v1.81h4.076v13.784h2.155V33.153h4.07l.236-1.81m7 8.827h-4.734c0-1.04.196-1.856.595-2.447.4-.59.997-.89 1.79-.902.367.01.69.086.955.23.274.147.5.336.69.567.227.286.4.648.517 1.084.124.435.187.927.187 1.473m2.18 1.54v-.362c0-1.28-.11-2.29-.322-3.037-.21-.748-.572-1.365-1.065-1.85-.79-.815-1.826-1.223-3.095-1.223-.706-.004-1.34.123-1.905.38-.563.254-1.073.647-1.527 1.177a5.176 5.176 0 0 0-1.05 1.89c-.22.695-.322 1.528-.322 2.5.02 1.874.47 3.338 1.367 4.39.893 1.054 2.14 1.59 3.738 1.608.745 0 1.443-.12 2.11-.36a5.76 5.76 0 0 0 1.825-1.09l-.79-1.243a4.338 4.338 0 0 1-1.31.814 4.01 4.01 0 0 1-1.49.272 3.322 3.322 0 0 1-1.496-.33 2.825 2.825 0 0 1-1.12-1.01 2.73 2.73 0 0 1-.368-.97 5.897 5.897 0 0 1-.11-1.292v-.273h6.937m10.677 3.983l-1.02-1.29c-.343.386-.72.68-1.127.878-.4.198-.815.298-1.238.3a2.35 2.35 0 0 1-.917-.18 2.107 2.107 0 0 1-.72-.5c-.3-.314-.526-.738-.683-1.273-.157-.532-.235-1.194-.235-1.984 0-.78.045-1.455.13-2.027.087-.577.228-1.055.417-1.438.185-.37.47-.683.823-.9a2.274 2.274 0 0 1 1.184-.32c.353-.003.682.06.988.196.313.135.65.364 1.01.687l1.097-1.425a4.562 4.562 0 0 0-1.416-.9 4.596 4.596 0 0 0-1.685-.302c-.564 0-1.09.1-1.583.296a4.677 4.677 0 0 0-1.38.857c-.557.476-1.01 1.11-1.364 1.908-.353.797-.533 1.83-.55 3.095 0 .857.087 1.62.267 2.294.167.645.448 1.255.83 1.8.8 1.133 2.02 1.698 3.66 1.698.717.006 1.35-.106 1.89-.336.55-.23 1.084-.61 1.617-1.137m11.202 1.253v-8.08c.006-.49-.01-.857-.05-1.103a2.91 2.91 0 0 0-.18-.73c-.18-.517-.53-.926-1.056-1.23-.517-.305-1.12-.46-1.81-.468-.416 0-.83.06-1.24.18-.407.124-.822.32-1.237.59a8.058 8.058 0 0 0-1.208.924c.023-.294.04-.57.047-.825.015-.256.015-.485.015-.69V32.97c0-.552-.014-1.044-.06-1.474-.04-.43-.1-.814-.188-1.15l-2.116.43c.08.324.14.68.187 1.068.04.387.063.823.063 1.307v13.787h2.116V38.79c.455-.515.95-.918 1.482-1.21.533-.29 1.05-.44 1.552-.444.274.004.525.047.752.13.225.083.39.183.492.3.117.126.21.322.282.59.07.265.11.597.11.994v7.784h2.045m12.48.002V38.36c0-.26-.024-.515-.07-.756a3.648 3.648 0 0 0-.205-.67c-.216-.49-.58-.9-1.043-1.17-.5-.29-1.068-.44-1.646-.438a4.295 4.295 0 0 0-2.116.566c-.232.137-.456.29-.67.455-.22.17-.487.39-.808.656 0-.344-.03-.654-.084-.93a3.63 3.63 0 0 0-.298-.812l-1.983.546c.156.385.274.766.337 1.144.063.38.095.894.095 1.55v8.442h2.075v-8.4c.4-.417.87-.76 1.388-1.03.525-.27 1-.41 1.434-.42.26 0 .494.04.69.117.184.067.346.183.47.334.134.168.228.376.283.626.055.247.086.62.078 1.115v7.65h2.077m6.568-14.825c-.016-.44-.157-.8-.447-1.08-.28-.282-.66-.44-1.058-.437-.396 0-.774.16-1.05.444-.274.285-.416.642-.43 1.072.006.415.147.77.422 1.05.273.282.62.43 1.033.44.43-.01.79-.16 1.08-.44a1.5 1.5 0 0 0 .45-1.05m-.432 14.822v-11.61l-2.163.34v11.27h2.164m13.6.002l-5.07-6.54 4.07-4.82h-2.55l-3.754 4.91 4.687 6.45h2.62m-7.532 0v-14.12c-.008-.837-.1-1.67-.27-2.49l-2.117.498c.095.323.166.69.22 1.104.05.413.08.905.08 1.476v13.534h2.092m23.42-.748c-.227-.196-.407-.49-.524-.89-.117-.398-.18-.886-.18-1.465V35.3l-2.07.41v8.147a3.395 3.395 0 0 1-1.097 1.266c-.47.335-.972.508-1.504.52a2.1 2.1 0 0 1-1.32-.497 1.396 1.396 0 0 1-.413-.71c-.076-.29-.11-.72-.11-1.283v-7.9l-2.067.407v8.06c0 .408.017.77.063 1.087.04.32.11.59.21.817.243.526.635.94 1.17 1.24.53.3 1.166.452 1.903.458.704 0 1.34-.133 1.903-.4.57-.267 1.08-.677 1.527-1.23.103.377.235.692.4.942.172.25.392.48.674.688l1.434-1.134m11.61.744v-8.578c0-.26-.022-.514-.07-.755a2.664 2.664 0 0 0-.204-.67 2.497 2.497 0 0 0-1.043-1.17c-.48-.286-1.027-.43-1.646-.44a4.306 4.306 0 0 0-2.116.567c-.232.136-.453.29-.664.456-.22.17-.496.39-.81.656a4.09 4.09 0 0 0-.095-.93 3.272 3.272 0 0 0-.298-.813l-1.976.543c.157.386.268.767.33 1.145.07.38.103.895.103 1.55v8.443h2.07v-8.4c.406-.417.87-.76 1.395-1.03s.994-.41 1.426-.42c.267 0 .494.04.69.117.203.076.36.19.47.336.133.17.235.378.29.628.054.246.08.62.08 1.114v7.65h2.068m10.617-2.874c-.197.35-.494.654-.9.91-.4.255-.91.39-1.515.4-.384 0-.714-.045-.987-.14a1.752 1.752 0 0 1-.7-.447c-.305-.284-.524-.663-.674-1.135-.14-.475-.21-1.244-.21-2.307 0-.727.038-1.34.133-1.833.092-.496.24-.925.46-1.29.212-.366.493-.65.822-.85.337-.2.72-.3 1.152-.305.533 0 .996.09 1.388.27.4.18.75.452 1.026.792v5.93m2.438 2.874c-.125-.35-.203-.845-.25-1.478a32.213 32.213 0 0 1-.07-2.325V30.64l-2.094-.34v4.413c0 .4.008.79.023 1.165.016.377.023.652.023.826-.384-.46-.807-.796-1.27-1a3.527 3.527 0 0 0-1.505-.308c-.406 0-.8.05-1.16.158-.367.107-.72.273-1.072.498-.777.504-1.373 1.21-1.78 2.116-.407.906-.61 1.973-.61 3.202.007 1.804.414 3.21 1.214 4.215.808 1.01 1.937 1.517 3.41 1.533a4.057 4.057 0 0 0 1.614-.308c.5-.215.95-.535 1.317-.937.03.27.062.477.086.617.023.14.07.29.12.448h2.01m24.897-15.596h-2.272l-1.662 7.9a73.9 73.9 0 0 0-.36 1.806c-.126.66-.236 1.28-.33 1.86-.1.58-.173 1.026-.22 1.336h-.14a24.085 24.085 0 0 0-.157-1.11c-.078-.504-.18-1.065-.29-1.686a81.384 81.384 0 0 0-.368-1.82l-1.803-8.284h-2.524l-1.825 8.24c-.182.87-.352 1.743-.51 2.618-.14.837-.26 1.54-.353 2.11h-.133c-.08-.49-.18-1.15-.308-1.983a55.597 55.597 0 0 0-.54-2.95l-1.733-8.04h-2.368l3.715 15.634h2.707l1.686-7.943c.18-.837.338-1.675.486-2.51.15-.838.25-1.47.313-1.9h.133c.063.484.157 1.116.29 1.894.134.78.306 1.65.51 2.61l1.732 7.852h2.68l3.645-15.638m4.67.77c-.01-.44-.157-.8-.44-1.08a1.5 1.5 0 0 0-1.058-.438c-.396 0-.774.16-1.05.444a1.53 1.53 0 0 0-.43 1.072c.007.417.147.77.42 1.05.268.284.612.43 1.036.443.43-.01.79-.16 1.072-.44a1.45 1.45 0 0 0 .446-1.05m-.43 14.82V35.32l-2.164.34v11.27h2.162m9.75-11.583a1.62 1.62 0 0 0-.32-.08 2.164 2.164 0 0 0-.385-.034 2.997 2.997 0 0 0-1.662.492c-.5.326-.98.82-1.433 1.475V37a5.24 5.24 0 0 0-.12-.92 4.09 4.09 0 0 0-.274-.82l-2.02.52c.14.34.243.724.32 1.16.072.434.11.99.11 1.67v8.327h2.094v-7.31c.023-.64.26-1.182.706-1.622a2.4 2.4 0 0 1 1.662-.687c.116 0 .22.01.305.03.095.02.19.048.29.082l.73-2.082m7.228.252h-2.775c0-.596.024-1.204.07-1.825.04-.622.088-1.144.135-1.568l-2.164.498c-.055.44-.094.922-.11 1.44-.02.518-.02 1-.02 1.457h-1.374v1.47h1.373v7.31c0 .792.087 1.33.235 1.613.154.283.36.515.602.696.198.177.474.31.825.41.353.106.73.16 1.113.16a4.564 4.564 0 0 0 2.07-.475l-.25-1.266a2.543 2.543 0 0 1-1.066.226c-.565.01-.95-.12-1.17-.39-.22-.27-.322-.753-.314-1.443v-6.835h2.258l.563-1.47m10.318 7.846c.02-.72-.23-1.42-.697-1.965-.47-.556-1.222-.957-2.264-1.203l-1.473-.34c-.596-.132-1.02-.32-1.262-.565-.25-.245-.366-.57-.36-.974.01-.516.19-.926.54-1.23.355-.304.83-.46 1.444-.467.446.003.9.073 1.348.213.455.14.934.34 1.45.602l.705-1.47c-.47-.274-1.01-.5-1.62-.666a7.54 7.54 0 0 0-1.976-.26c-1.245.016-2.24.344-2.977.983-.738.64-1.12 1.49-1.137 2.547 0 .84.244 1.53.715 2.064.47.536 1.16.896 2.06 1.08l1.39.273c.657.123 1.144.33 1.45.62.312.296.47.684.46 1.17-.007.56-.203 1.01-.587 1.33-.385.328-.893.494-1.528.5a5.954 5.954 0 0 1-1.897-.335 10.596 10.596 0 0 1-1.77-.795l-.746 1.492a9.05 9.05 0 0 0 2.104.89c.7.2 1.426.304 2.154.31 1.35-.018 2.43-.37 3.237-1.053.806-.685 1.222-1.602 1.245-2.75m10.54 2.237l-1.025-1.29c-.314.36-.693.66-1.12.877-.41.2-.825.3-1.247.3a2.305 2.305 0 0 1-.91-.18 2.074 2.074 0 0 1-.73-.5c-.296-.313-.523-.737-.673-1.272-.157-.534-.235-1.196-.235-1.986 0-.78.036-1.455.123-2.027.086-.574.227-1.052.422-1.435a2.17 2.17 0 0 1 .823-.9 2.23 2.23 0 0 1 1.177-.322c.36-.003.69.06.996.196.305.134.643.363 1.01.686l1.09-1.425a4.53 4.53 0 0 0-1.41-.897 4.537 4.537 0 0 0-1.686-.303 4.33 4.33 0 0 0-2.954 1.152c-.566.475-1.02 1.11-1.374 1.907-.355.795-.536 1.83-.544 3.093a8.874 8.874 0 0 0 .26 2.294c.166.646.447 1.256.83 1.8.8 1.134 2.02 1.7 3.67 1.7.713.005 1.34-.107 1.89-.337.54-.23 1.08-.61 1.613-1.136m11.2 1.253v-8.08c0-.49-.017-.857-.048-1.103a3.528 3.528 0 0 0-.18-.73c-.19-.517-.54-.926-1.06-1.23-.525-.305-1.128-.46-1.812-.468-.423 0-.838.06-1.246.18a5.05 5.05 0 0 0-1.235.59c-.22.14-.418.273-.592.403-.17.13-.375.304-.62.52.026-.292.04-.57.057-.823.007-.256.015-.485.015-.69v-2.54c0-.552-.023-1.044-.07-1.474a8.596 8.596 0 0 0-.18-1.15l-2.117.43c.078.324.14.68.18 1.068.048.387.07.823.07 1.307v13.787h2.117V38.79c.42-.487.92-.896 1.48-1.21.534-.29 1.05-.44 1.545-.444.282.004.533.047.752.13.227.083.39.183.5.3.12.126.213.322.275.59.07.265.11.597.11.994v7.784h2.054m9.572-5.564l-.06 2.898a3.25 3.25 0 0 1-1.036 1.086c-.404.26-.875.4-1.355.407-.59 0-1.037-.173-1.34-.515-.308-.34-.457-.824-.465-1.45 0-.365.047-.67.133-.92a2.26 2.26 0 0 1 .463-.733c.22-.263.58-.463 1.074-.604.485-.14 1.12-.21 1.904-.21.086 0 .188.004.29.013.11.008.235.02.39.03m2.965 4.64c-.43-.254-.696-.584-.798-.99-.11-.402-.15-.986-.134-1.75 0-.846.017-1.653.048-2.42.023-.763.04-1.36.04-1.79.007-.536-.01-.944-.04-1.223a3.222 3.222 0 0 0-.188-.767c-.22-.6-.62-1.053-1.186-1.356-.572-.303-1.277-.455-2.117-.456-1.098.023-2.03.192-2.8.51-.767.316-1.433.644-1.98.983l.955 1.496a7.06 7.06 0 0 1 1.653-.908c.592-.24 1.22-.37 1.858-.383.77.01 1.262.216 1.48.62.22.403.314.943.29 1.62v.747c-.14-.01-.28-.016-.406-.02-.128 0-.25-.002-.394 0-1.85.002-3.277.346-4.28 1.03-1 .68-1.513 1.68-1.52 2.997.007 1.087.336 1.914.987 2.477.65.563 1.552.846 2.695.85.66-.013 1.217-.116 1.655-.308.447-.194.8-.407 1.05-.64.26-.233.44-.416.533-.548.133.395.338.732.596 1.01.267.273.572.48.926.62l1.072-1.405m8.892-14.976a3.92 3.92 0 0 0-1.16-.47c-.435-.1-.88-.147-1.325-.142a4.647 4.647 0 0 0-1.144.125 2.77 2.77 0 0 0-.922.416c-.32.21-.61.54-.87 1-.25.454-.39 1.064-.406 1.83v.5c.007.255.007.52.015.78s.016.44.03.53h-1.112v1.47h1.09v9.87h2.117v-9.87h2.46l.55-1.47h-3.03v-1.835c.006-.58.14-1.026.406-1.338.267-.313.643-.47 1.12-.473.26.002.51.043.753.12.234.08.48.183.73.31l.703-1.358m6.105 4.57h-2.78c.007-.596.02-1.204.07-1.825.038-.62.085-1.143.132-1.567l-2.164.498c-.055.44-.086.923-.11 1.44-.015.52-.022 1-.022 1.458h-1.362v1.47h1.365v7.31c.008.79.086 1.33.243 1.612.155.282.35.514.595.695.196.174.47.31.823.41.362.104.736.156 1.113.158.752 0 1.44-.158 2.077-.476l-.25-1.266c-.18.08-.362.138-.526.175-.17.035-.35.053-.546.052-.555.01-.947-.12-1.167-.39-.21-.27-.32-.753-.313-1.443V37.07h2.26l.572-1.47M124.56 24.3V8.713h-2.195v6.404h-5.95V8.712h-2.154v15.592h2.16v-7.4h5.95v7.4h2.194m11.26-5.477c-.008 1.472-.236 2.54-.69 3.206-.447.665-1.074.992-1.873.98-.88.026-1.544-.31-1.983-1.01-.44-.697-.66-1.9-.66-3.606-.007-1.42.19-2.467.597-3.143.41-.674 1.06-1.01 1.96-1 .824-.03 1.467.295 1.937.97.464.676.707 1.876.715 3.6m2.328-.09c0-1.15-.18-2.182-.548-3.096-.362-.914-.91-1.638-1.647-2.172-.737-.534-1.67-.807-2.783-.82-1.512.02-2.696.56-3.55 1.614-.862 1.055-1.3 2.51-1.317 4.36.016 1.866.455 3.326 1.317 4.384s2.06 1.595 3.597 1.615c1.52-.02 2.72-.556 3.59-1.598.88-1.04 1.327-2.472 1.34-4.29m11.295 4.325l-1.02-1.29c-.344.385-.72.68-1.12.877-.4.198-.815.298-1.238.3a2.312 2.312 0 0 1-.91-.18 2.16 2.16 0 0 1-.72-.5c-.29-.313-.52-.738-.668-1.272-.158-.535-.236-1.197-.236-1.987 0-.78.04-1.457.125-2.03.086-.572.227-1.05.415-1.434.206-.387.47-.686.825-.9.344-.21.736-.32 1.167-.32.352-.004.682.06.987.194.305.134.642.363 1 .686l1.09-1.424a4.546 4.546 0 0 0-1.404-.895 4.526 4.526 0 0 0-1.676-.302c-.538 0-1.07.1-1.57.297a4.616 4.616 0 0 0-1.37.857c-.558.475-1.01 1.11-1.357 1.908-.353.797-.533 1.83-.55 3.095 0 .857.087 1.622.267 2.294.182.67.456 1.272.824 1.8.8 1.132 2.01 1.697 3.645 1.697.71.006 1.33-.106 1.88-.336.54-.23 1.073-.607 1.606-1.135m11.7 1.244v-8.08c0-.49-.015-.857-.046-1.103a3.01 3.01 0 0 0-.18-.73c-.18-.515-.533-.925-1.05-1.23-.518-.303-1.12-.46-1.803-.465-.416 0-.83.06-1.23.18a4.79 4.79 0 0 0-1.23.59c-.22.14-.416.274-.59.404-.163.13-.375.306-.61.524.024-.295.04-.57.047-.825.015-.256.015-.485.015-.69V10.34c0-.552-.023-1.043-.063-1.473a8.96 8.96 0 0 0-.18-1.152l-2.11.43c.08.325.14.682.18 1.07.046.386.07.823.07 1.306v13.787h2.1V16.16c.455-.516.94-.92 1.474-1.21.533-.29 1.042-.44 1.536-.443.284.003.527.047.754.13.22.082.384.182.494.3.118.124.212.32.282.588.062.267.1.6.1.995v7.784h2.04m12.32-3.484a2.93 2.93 0 0 0-.69-1.967c-.47-.555-1.222-.955-2.256-1.202l-1.467-.34c-.596-.13-1.01-.32-1.255-.56-.243-.246-.36-.57-.353-.973.01-.517.18-.927.534-1.23.344-.305.822-.46 1.435-.468.443 0 .89.07 1.34.212.443.14.922.34 1.44.6l.698-1.47c-.465-.275-1-.5-1.617-.67a7.76 7.76 0 0 0-1.958-.26c-1.238.02-2.226.348-2.962.988-.735.638-1.11 1.487-1.127 2.545 0 .842.236 1.53.706 2.067.47.533 1.15.894 2.05 1.08l1.38.27c.65.122 1.138.33 1.444.62.305.293.46.68.46 1.167-.014.56-.208 1-.585 1.33-.385.325-.887.49-1.522.5a6.085 6.085 0 0 1-1.89-.337 10.54 10.54 0 0 1-1.755-.796l-.744 1.494a9.063 9.063 0 0 0 2.094.89c.73.205 1.444.31 2.14.31 1.34-.015 2.414-.366 3.222-1.052.808-.684 1.215-1.6 1.238-2.75M184.5 23.06l-1.02-1.29c-.344.386-.713.68-1.12.878a2.76 2.76 0 0 1-1.23.3 2.266 2.266 0 0 1-.91-.18 2.102 2.102 0 0 1-.72-.5c-.3-.313-.518-.738-.675-1.272-.157-.535-.235-1.197-.235-1.987 0-.78.047-1.46.125-2.03.094-.575.23-1.05.424-1.437.194-.388.468-.687.814-.9a2.23 2.23 0 0 1 1.175-.322c.35-.002.68.06.983.196.306.134.635.363 1 .686l1.082-1.425a4.472 4.472 0 0 0-1.404-.896 4.48 4.48 0 0 0-1.67-.303c-.556.003-1.08.1-1.574.298a4.616 4.616 0 0 0-1.37.857c-.55.474-1 1.11-1.357 1.907-.355.795-.535 1.827-.542 3.093 0 .857.086 1.622.258 2.294a5.68 5.68 0 0 0 .824 1.802c.8 1.13 2.01 1.696 3.646 1.696.71.005 1.34-.107 1.88-.337.54-.23 1.073-.608 1.606-1.136m11.703 1.244v-8.08a7.975 7.975 0 0 0-.04-1.104 3.322 3.322 0 0 0-.18-.73c-.19-.515-.54-.925-1.06-1.23-.518-.303-1.113-.46-1.795-.465-.415-.003-.83.06-1.238.18-.4.122-.816.32-1.232.59a8.17 8.17 0 0 0-1.2.926c.026-.294.04-.57.05-.824.016-.256.023-.485.023-.69V10.34c0-.552-.024-1.043-.07-1.473a8.79 8.79 0 0 0-.18-1.152l-2.11.43c.08.325.142.682.19 1.07.037.386.06.823.06 1.306v13.787h2.11V16.16a5.38 5.38 0 0 1 1.465-1.21c.53-.29 1.042-.44 1.543-.443.276.003.526.047.745.13.228.082.393.182.502.3.11.124.203.32.273.588.07.267.102.6.11.995v7.784h2.03m13.653-.746c-.227-.195-.4-.49-.517-.89-.118-.397-.18-.885-.18-1.464v-8.532l-2.063.408v8.147c-.25.51-.61.932-1.08 1.267-.477.335-.97.508-1.496.52a2.044 2.044 0 0 1-1.31-.497 1.346 1.346 0 0 1-.414-.707c-.08-.293-.11-.72-.11-1.285v-7.9l-2.06.407v8.06c0 .406.022.77.06 1.085.04.318.11.59.213.816.243.525.635.94 1.16 1.238.533.3 1.16.458 1.896.46.697 0 1.332-.13 1.896-.4.558-.262 1.065-.673 1.52-1.23.096.38.23.696.394.947.164.25.39.478.666.687l1.426-1.13m7.24.722l-.36-1.29a.846.846 0 0 1-.393.005.607.607 0 0 1-.312-.164c-.11-.084-.188-.238-.228-.463-.048-.226-.063-.63-.063-1.212V10.954c0-.702-.008-1.323-.023-1.864a6.946 6.946 0 0 0-.18-1.377l-2.17.452c.084.42.147.874.187 1.357.04.484.057 1.118.057 1.9V21.7c0 .54.03.946.094 1.223.064.277.173.526.34.748.21.305.46.525.743.66.276.137.62.205 1.02.2.25 0 .47-.02.675-.054.213-.043.42-.107.62-.193m9.47-6.743h-4.712c0-1.04.195-1.858.596-2.45.39-.59.986-.89 1.78-.902.36.005.68.08.953.227.267.145.494.334.675.566.228.29.4.65.524 1.087.116.436.18.927.18 1.474m2.17 1.54v-.365c-.008-1.278-.118-2.29-.33-3.037-.21-.747-.563-1.364-1.05-1.85-.79-.815-1.82-1.223-3.08-1.223-.7 0-1.332.126-1.896.382-.564.257-1.066.65-1.52 1.18a5.176 5.176 0 0 0-1.043 1.89c-.21.695-.32 1.528-.313 2.5.017 1.873.464 3.338 1.357 4.39.884 1.054 2.124 1.59 3.714 1.608a6.05 6.05 0 0 0 2.09-.36c.66-.24 1.26-.603 1.82-1.09l-.793-1.243a4.3 4.3 0 0 1-1.3.817c-.455.18-.95.27-1.482.27a3.28 3.28 0 0 1-1.49-.327c-.455-.23-.84-.58-1.11-1.01-.174-.27-.29-.594-.37-.97a7.148 7.148 0 0 1-.11-1.29v-.273h6.907m11.62 5.228V8.712h-2.22v15.592h2.22m8.48 0l-5.9-8.35 5.696-7.242h-2.736l-5.454 7.264 5.563 8.328h2.83m8.128-5.567l-.07 2.897a3.13 3.13 0 0 1-1.026 1.086 2.52 2.52 0 0 1-1.35.408c-.58-.005-1.025-.177-1.322-.518-.307-.34-.464-.825-.464-1.452-.01-.364.04-.67.134-.918a2.29 2.29 0 0 1 .455-.734c.22-.26.58-.462 1.065-.602.487-.14 1.123-.21 1.9-.212.085 0 .187.005.29.014.1.008.234.02.39.03m2.94 4.64c-.423-.253-.69-.583-.792-.987-.11-.41-.15-.99-.134-1.75 0-.85.017-1.66.04-2.42.03-.772.046-1.366.046-1.796 0-.536-.008-.944-.047-1.224a2.832 2.832 0 0 0-.18-.766 2.434 2.434 0 0 0-1.185-1.355c-.564-.3-1.26-.456-2.093-.456-1.09.023-2.02.193-2.79.51-.76.316-1.42.644-1.967.984l.948 1.493a7.056 7.056 0 0 1 1.647-.907 5.252 5.252 0 0 1 1.84-.382c.77.01 1.263.218 1.482.62.21.404.313.944.282 1.62v.748a6.718 6.718 0 0 0-.4-.016l-.395-.003c-1.842.004-3.26.347-4.256 1.03-.995.68-1.505 1.68-1.51 3 .005 1.09.335 1.913.984 2.476.644.564 1.536.846 2.68.85.65-.013 1.2-.116 1.64-.308.447-.193.79-.407 1.05-.64.25-.234.43-.42.524-.55.135.397.338.734.597 1.01.26.276.563.48.917.62l1.066-1.404m9.392-10.655a2.178 2.178 0 0 0-.706-.112c-.596 0-1.145.164-1.645.49-.512.326-.98.82-1.44 1.475v-.203c0-.292-.04-.6-.11-.92a4.22 4.22 0 0 0-.272-.82l-2.01.52c.14.34.24.725.32 1.16.07.435.11.99.11 1.67v8.328h2.083v-7.31c.016-.64.25-1.18.698-1.62.455-.44 1-.67 1.653-.688.11 0 .213.01.307.03.088.02.19.047.283.082l.73-2.083m6.068 11.562l-.36-1.29a.847.847 0 0 1-.394.005.612.612 0 0 1-.314-.164c-.11-.084-.188-.238-.227-.463-.048-.226-.063-.63-.063-1.212V10.953c0-.702-.01-1.323-.022-1.864a6.84 6.84 0 0 0-.18-1.377l-2.17.452c.085.42.148.874.19 1.357.038.484.06 1.118.05 1.9V21.7c0 .54.033.946.095 1.223.055.277.173.526.337.748.212.305.463.525.736.66.285.137.63.205 1.037.2a4 4 0 0 0 .666-.054c.204-.04.41-.104.62-.193m10.877-3.46a2.918 2.918 0 0 0-.69-1.968c-.47-.555-1.22-.955-2.254-1.202l-1.466-.34c-.596-.13-1.012-.32-1.256-.563-.24-.247-.358-.57-.35-.974 0-.517.18-.927.534-1.23.345-.305.822-.46 1.434-.468a4.45 4.45 0 0 1 1.34.213c.448.14.926.34 1.44.6l.71-1.47c-.47-.275-1.01-.5-1.624-.67a7.634 7.634 0 0 0-1.96-.26c-1.236.022-2.225.348-2.962.988-.735.638-1.112 1.487-1.127 2.545 0 .843.235 1.53.705 2.068.47.535 1.153.896 2.055 1.08l1.38.27c.65.124 1.137.33 1.44.62.307.295.464.68.464 1.17-.017.56-.213 1-.59 1.33-.384.327-.886.494-1.52.5a6.09 6.09 0 0 1-1.892-.335 10.558 10.558 0 0 1-1.753-.796l-.745 1.493a9.05 9.05 0 0 0 2.094.888 7.826 7.826 0 0 0 2.14.31c1.34-.014 2.415-.365 3.223-1.05.8-.685 1.215-1.6 1.237-2.75m9.338-8.1a2.207 2.207 0 0 0-.697-.112 2.99 2.99 0 0 0-1.652.492c-.505.325-.975.82-1.43 1.474v-.203c0-.293-.04-.6-.117-.92a4.137 4.137 0 0 0-.267-.82l-2.012.52c.14.34.244.724.32 1.16.072.434.11.99.11 1.67v8.327h2.086v-7.31c.015-.64.25-1.18.696-1.62.45-.44 1-.67 1.656-.688.11 0 .21.01.306.03.09.02.18.047.284.082l.72-2.08m11.722 10.84c-.228-.195-.4-.49-.526-.89-.117-.397-.18-.885-.18-1.464v-8.532l-2.06.408v8.147a3.38 3.38 0 0 1-1.083 1.266c-.472.335-.972.508-1.494.52a2.043 2.043 0 0 1-.73-.147c-.212-.082-.41-.2-.58-.35a1.38 1.38 0 0 1-.413-.71c-.07-.292-.11-.72-.1-1.284v-7.9l-2.06.407v8.06c0 .406.012.77.05 1.085.05.317.12.59.214.815.25.525.636.94 1.168 1.238.526.3 1.16.456 1.89.46.697 0 1.332-.13 1.897-.4.563-.264 1.073-.675 1.52-1.23.103.38.228.694.4.945.164.25.384.478.666.687l1.427-1.13m12.616.745v-8.08a9.8 9.8 0 0 0-.046-1.103 3.528 3.528 0 0 0-.18-.73c-.19-.515-.534-.925-1.05-1.23-.52-.303-1.123-.46-1.805-.465a4.195 4.195 0 0 0-1.23.18c-.41.122-.824.32-1.24.59-.21.137-.407.272-.58.402-.172.13-.376.306-.62.524.025-.295.04-.57.057-.825.008-.256.016-.485.016-.69v-2.54c0-.55-.023-1.042-.063-1.472a9.95 9.95 0 0 0-.19-1.152l-2.1.43c.08.325.14.682.18 1.07.05.386.064.823.064 1.306v13.786h2.11V16.16c.446-.516.94-.92 1.473-1.21.525-.29 1.043-.44 1.536-.443.275.003.525.047.753.13.22.082.384.182.494.3.11.124.203.32.274.588.07.267.11.6.11.995v7.784h2.04m10.91-6.766h-4.704c0-1.04.197-1.857.59-2.448.4-.59.994-.89 1.786-.902.36.005.674.08.948.227.274.145.502.334.682.566.228.29.4.65.52 1.088.124.436.18.927.18 1.474m2.168 1.54v-.364c0-1.278-.11-2.29-.32-3.037-.21-.747-.564-1.364-1.058-1.85-.784-.815-1.81-1.223-3.073-1.223-.707 0-1.334.126-1.9.382a4.372 4.372 0 0 0-1.52 1.18 5.353 5.353 0 0 0-1.05 1.89c-.21.694-.313 1.527-.313 2.5.016 1.872.47 3.337 1.355 4.39.893 1.053 2.132 1.59 3.715 1.607a6.06 6.06 0 0 0 2.092-.36 5.735 5.735 0 0 0 1.826-1.09l-.792-1.243a4.25 4.25 0 0 1-1.3.815c-.463.18-.957.27-1.49.27a3.24 3.24 0 0 1-1.48-.327 2.814 2.814 0 0 1-1.12-1.01 3.006 3.006 0 0 1-.36-.97 6.27 6.27 0 0 1-.11-1.29v-.273H333"/><path d="M120.25 67.837v-6.683h-1.505v6.24c0 1.233-.533 1.89-1.63 1.89-1.113 0-1.615-.468-1.615-1.89v-6.24h-1.513v6.695c0 1.49.745 2.75 3.128 2.75 1.99 0 3.135-1.06 3.135-2.763m9.4 2.602v-9.286h-1.426l.03 4.24c0 .846.087 2.174.126 2.644l-.04.04c-.116-.43-.508-1.53-.924-2.39l-2.202-4.534h-1.7v9.285h1.48l-.054-4.495c-.008-.818-.024-1.797-.087-2.576l.04-.04c.164.55.666 1.712 1.152 2.75l2.02 4.36h1.583m3.312-9.292h1.543v9.283h-1.543V61.15zm11.08 0h-1.575l-1.662 5.18c-.438 1.38-.548 1.943-.548 1.943h-.024s-.1-.684-.47-1.864l-1.633-5.26h-1.646l3.05 9.322h1.394l3.12-9.322m7.188 9.29v-1.314h-3.62v-2.898h2.76V64.95h-2.79v-2.537h3.323l.198-1.26h-5.02v9.284h5.15m5.063-8.04c1.333 0 1.826.482 1.826 1.42 0 .483-.157.872-.4 1.126-.275.28-.698.39-1.48.39h-.77V62.4h.823m3.88 8.04l-1.333-2.228c-.47-.777-1.074-1.677-1.396-1.852 1.41 0 2.25-1.22 2.25-2.545 0-1.45-.917-2.656-2.947-2.656h-2.76v9.282h1.48v-4.01c.28.014.415.107.587.28.494.51.917 1.155 1.544 2.296l.784 1.434h1.787m8.2-2.81c0-1.396-.916-2.254-2.225-2.644l-1.073-.322c-.882-.268-1.2-.563-1.2-1.14 0-.765.59-1.26 1.478-1.26.72 0 1.293.2 2.132.71l.68-1.088c-.8-.58-1.834-.887-2.87-.887-1.817 0-3.07 1.114-3.07 2.75 0 .538.132.98.383 1.356.337.52.925.87 1.748 1.113l.97.283c.928.27 1.35.697 1.35 1.38 0 .928-.665 1.48-1.78 1.48-.915 0-1.636-.283-2.443-.767l-.58 1.18c.893.55 1.936.834 2.97.834 2.32 0 3.535-1.436 3.535-2.978m2.72-6.48h1.546v9.285H171.1V61.15v.002zm10.05 0h-6.27v1.29h2.297v7.995h1.504V62.44h2.275l.196-1.288m8.39 0h-1.756l-1.388 2.938c-.235.51-.502 1.17-.502 1.17s-.205-.603-.48-1.194l-1.363-2.91h-1.817l2.853 5.525v3.76h1.56v-3.75l2.894-5.544m8.87 8.274c-1.545 0-2.134-1.328-2.134-3.717 0-2.227.58-3.488 2.095-3.488 1.624 0 2.087 1.422 2.087 3.69 0 2.495-.697 3.515-2.045 3.515m.04 1.167c2.36 0 3.715-1.88 3.715-4.776 0-2.708-1.23-4.788-3.776-4.788-2.268 0-3.78 1.72-3.78 4.78 0 2.75 1.27 4.79 3.84 4.79m11.07-9.442h-4.79v9.287h1.507V66.18h2.525v-1.246h-2.523V62.41h3.104l.18-1.26m9.62 5.56h-2.227c.21-.616 1.136-3.958 1.136-3.958h.02c.068.36.978 3.758 1.072 3.958m2.72 3.73l-2.89-9.298h-1.74l-2.972 9.297h1.56l.735-2.442h2.924l.738 2.44h1.646m4.64-8.038c.588 0 .98.16 1.254.455.25.27.37.658.37 1.168 0 1.1-.51 1.637-1.624 1.637h-1.176V62.4h1.176m3.284 1.53c0-1.02-.44-1.852-1.237-2.334-.503-.31-.988-.443-2.306-.443h-2.405v9.285h1.49v-3.543h1.527c1.638 0 2.93-1.14 2.93-2.965m4.937-1.53c.586 0 .98.16 1.26.455.244.27.36.658.36 1.168 0 1.1-.51 1.637-1.62 1.637h-1.177V62.4h1.175m3.283 1.53c0-1.02-.445-1.852-1.238-2.334-.502-.31-.987-.443-2.304-.443h-2.405v9.285h1.49v-3.543h1.528c1.638 0 2.93-1.14 2.93-2.965m7.077 5.23h-3.35v-8.01H240.2v9.285h4.63l.25-1.275m2.07-8.01h1.545v9.285h-1.545V61.15zm9.97 9.29v-1.315h-3.63v-2.898h2.77v-1.274h-2.79v-2.536h3.32l.196-1.26h-5.02v9.283h5.158m7.417-4.46c0 2.104-.64 3.19-2.24 3.19h-.995v-6.8h.957c.815 0 1.285.215 1.7.805.47.657.58 1.61.58 2.804m1.67-.166c0-1.45-.313-2.563-.98-3.354-.846-.992-1.86-1.313-3.56-1.313h-1.88v9.283h2.233c1.687 0 2.478-.31 3.238-1.3.614-.806.95-1.907.95-3.316m12.24 1.815c0-1.4-.916-2.257-2.225-2.647l-1.074-.32c-.885-.27-1.2-.564-1.2-1.14 0-.767.59-1.26 1.475-1.26.72 0 1.293.198 2.133.708l.68-1.086c-.8-.577-1.833-.885-2.87-.885-1.815 0-3.07 1.113-3.07 2.75 0 .537.134.978.384 1.355.34.522.928.87 1.75 1.113l.97.284c.927.27 1.35.697 1.35 1.38 0 .928-.665 1.48-1.778 1.48-.92 0-1.642-.283-2.446-.767l-.58 1.18c.893.55 1.935.834 2.97.834 2.32 0 3.535-1.438 3.535-2.98m8.426 2.134l-.706-.98c-.51.417-.98.59-1.623.59-.878 0-1.62-.428-2.01-1.312-.234-.52-.354-1.164-.354-2.304 0-1.1.156-1.88.47-2.442.392-.71 1.034-1.113 1.8-1.113.566 0 1.06.16 1.546.523l.696-1.02c-.54-.455-1.38-.725-2.256-.725-1.41 0-2.65.805-3.33 2.134-.408.777-.604 1.703-.604 2.818 0 1.34.354 2.47 1.035 3.313.707.874 1.66 1.343 2.87 1.343.964 0 1.764-.268 2.47-.818m2.236-8.62h1.542v9.283h-1.543V61.15zm9.97 9.29v-1.317h-3.63v-2.898h2.767V64.95h-2.79v-2.535h3.323l.194-1.26h-5.02v9.284h5.157m8.837 0V61.15H306.5l.023 4.24c0 .844.095 2.174.134 2.643l-.04.04a16.74 16.74 0 0 0-.934-2.388l-2.193-4.537h-1.7v9.285h1.48l-.056-4.496c-.018-.817-.033-1.796-.096-2.575l.04-.04c.17.55.665 1.715 1.15 2.75l2.03 4.36h1.583m8.963-.675l-.705-.98c-.518.416-.988.59-1.623.59-.878 0-1.623-.428-2.022-1.312-.235-.523-.345-1.166-.345-2.307 0-1.1.156-1.88.47-2.442.393-.71 1.028-1.11 1.804-1.11.563 0 1.057.16 1.542.52l.69-1.02c-.534-.453-1.373-.723-2.25-.723-1.41 0-2.657.805-3.33 2.133-.41.78-.605 1.705-.605 2.818 0 1.34.353 2.47 1.034 3.314.705.873 1.662 1.343 2.86 1.343.973 0 1.77-.27 2.477-.817m7.38.67V69.12h-3.62v-2.897h2.76V64.95h-2.784v-2.537h3.322l.196-1.26h-5.02v9.284h5.15m8.445-2.81c0-1.396-.917-2.254-2.218-2.645l-1.074-.32c-.895-.268-1.208-.56-1.208-1.14 0-.765.59-1.26 1.483-1.26.72 0 1.293.198 2.13.708l.683-1.084c-.8-.578-1.834-.886-2.867-.886-1.82 0-3.075 1.112-3.075 2.75 0 .536.127.98.377 1.354.346.522.934.87 1.757 1.113l.962.284c.935.27 1.35.698 1.35 1.38 0 .93-.667 1.48-1.78 1.48-.916 0-1.63-.282-2.444-.766l-.573 1.18a5.674 5.674 0 0 0 2.97.834c2.313 0 3.527-1.437 3.527-2.98M40.624 94.89l48.18-12.437-13.25-49.08 23.502 44.825-60.79 35.826 2.367-19.13m59.34-16.436l-25.17-48.03c-5.08.297-17.12-1.62-24.907-10.583l-7.9 64.05 32.807.007V33.147l13.18 48.822-47.26 12.2 1.264-10.277h-.683l-1.29 10.457-22.496 5.807 5.502-16.264-.724.007-5.83 17.236 23.456-6.06-2.5 20.235 62.55-36.86" fill="#db0031"/><path d="M23.01 83.89h18.282l8.07-65.75c.542.63 6.685 9.122 19.575 11.23-8.282-2.95-17.314-11.14-20.69-20.48l-25.24 74.99" fill="#db0031"/><path d="M22.29 83.89H0L51.11 0c-.053 12.05 7.395 19.382 7.98 20.22.69.588 4.518 5.48 13.747 9.42-2.302-.447-8.235-1.274-16.312-9.436-2.55-2.468-6.696-7.51-8.272-13.506l-25.967 77.19" fill="#db0031"/></svg>